<?xml version="1.0" encoding="utf-8"?>
<!-- Generator: Adobe Illustrator 22.1.0, SVG Export Plug-In . SVG Version: 6.00 Build 0)  -->
<svg version="1.1" id="Layer_1" xmlns="http://www.w3.org/2000/svg" xmlns:xlink="http://www.w3.org/1999/xlink" x="0px" y="0px"
	 viewBox="0 0 64 67.3" style="enable-background:new 0 0 64 67.3;" xml:space="preserve">
<style type="text/css">
	.st0{fill:#FFFFFF;}
</style>
<title>add</title>
<path class="st0" d="M32,4.5C16,4.5,2.8,17.6,2.8,33.7c0,16.1,13.1,29.1,29.2,29.1c16.1,0,29.1-13.1,29.1-29.1S48.1,4.5,32,4.5z
	 M32,11.3c12.3,0,22.4,10,22.4,22.4S44.4,56,32,56S9.7,46,9.7,33.7S19.7,11.3,32,11.3z M32,17.2c-1.9,0-3.4,1.6-3.4,3.4V30h-9.3
	c-1.9,0-3.4,1.6-3.4,3.4c0,1.9,1.6,3.4,3.4,3.4h9.3v9.3c0,1.9,1.6,3.4,3.4,3.4c1.9,0,3.4-1.6,3.4-3.4v-9.3h9.3
	c1.9,0,3.4-1.6,3.4-3.4c0-1.9-1.6-3.4-3.4-3.4h-9.3v-9.4C35.4,18.8,33.9,17.2,32,17.2z"/>
</svg>
