<?xml version="1.0" encoding="utf-8"?>
<!-- Generator: Adobe Illustrator 22.1.0, SVG Export Plug-In . SVG Version: 6.00 Build 0)  -->
<svg version="1.1" id="Layer_1" xmlns="http://www.w3.org/2000/svg" xmlns:xlink="http://www.w3.org/1999/xlink" x="0px" y="0px"
	 viewBox="0 0 100 97.3" style="enable-background:new 0 0 100 97.3;" xml:space="preserve">
<style type="text/css">
	.st0{display:none;}
	.st1{display:inline;}
	.st2{fill:none;}
	.st3{fill:#77844F;}
</style>
<g class="st0">
	<path class="st1" d="M108.8,1194.7H-1129c-2.1,0-3.8-1.7-3.8-3.8V3.8c0-2.1,1.7-3.8,3.8-3.8H108.8c2.1,0,3.8,1.7,3.8,3.8V1191
		C112.6,1193,110.9,1194.7,108.8,1194.7z"/>
</g>
<g>
	<g>
		<polygon class="st2" points="75.5,23.9 70.7,23.9 70.7,19.3 29.3,19.3 29.3,23.9 24.5,23.9 24.5,19.3 10.7,19.3 10.7,32.1 
			89.3,32.1 89.3,19.3 75.5,19.3 		"/>
		<path class="st2" d="M10.7,86.7h78.6V37.7H10.7V86.7z M63.7,47.4c2.9,0,5.3,2.4,5.3,5.3S66.6,58,63.7,58s-5.3-2.4-5.3-5.3
			C58.4,49.7,60.7,47.4,63.7,47.4z M50,66.6c3.2,0,5.8-2.6,5.8-5.8h4.8c0,5.9-4.8,10.6-10.6,10.6s-10.6-4.8-10.6-10.6h4.8
			C44.2,64,46.8,66.6,50,66.6z M36.3,47.4c2.9,0,5.3,2.4,5.3,5.3S39.3,58,36.3,58S31,55.6,31,52.7C31,49.7,33.4,47.4,36.3,47.4z"/>
		<path class="st3" d="M75.5,13.6V7.7h-4.8v5.9H29.3V7.7h-4.8v5.9H5v78.7h90V13.6H75.5z M89.3,86.7H10.7V37.7h78.6V86.7z M89.3,32.1
			H10.7V19.3h13.8v4.6h4.8v-4.6h41.4v4.6h4.8v-4.6h13.8V32.1z"/>
		<path class="st3" d="M63.7,58c2.9,0,5.3-2.4,5.3-5.3s-2.4-5.3-5.3-5.3s-5.3,2.4-5.3,5.3C58.4,55.6,60.7,58,63.7,58z"/>
		<path class="st3" d="M36.3,58c2.9,0,5.3-2.4,5.3-5.3s-2.4-5.3-5.3-5.3S31,49.7,31,52.7C31,55.6,33.4,58,36.3,58z"/>
		<path class="st3" d="M50,71.4c5.9,0,10.6-4.8,10.6-10.6h-4.8c0,3.2-2.6,5.8-5.8,5.8s-5.8-2.6-5.8-5.8h-4.8
			C39.4,66.6,44.1,71.4,50,71.4z"/>
	</g>
</g>
</svg>
