<?xml version="1.0" encoding="utf-8"?>
<!-- Generator: Adobe Illustrator 22.1.0, SVG Export Plug-In . SVG Version: 6.00 Build 0)  -->
<svg version="1.1" xmlns="http://www.w3.org/2000/svg" xmlns:xlink="http://www.w3.org/1999/xlink" x="0px" y="0px"
	 viewBox="0 0 100 105.7" style="enable-background:new 0 0 100 105.7;" xml:space="preserve">
<style type="text/css">
	.st0{fill:#595959;}
</style>
<g id="Layer_2">
</g>
<g id="Layer_1">
	<g>
		<path class="st0" d="M79.4,10.1h-6V6.4c0-2.1-1.7-3.9-3.9-3.9s-3.9,1.7-3.9,3.9v3.7H34.4V6.4c0-2.1-1.7-3.9-3.9-3.9
			s-3.9,1.7-3.9,3.9v3.7h-6c-9.8,0-17.7,7.9-17.7,17.7v52c0,9.8,8,17.7,17.7,17.7h58.8c9.8,0,17.7-7.9,17.7-17.7v-52
			C97.1,18,89.1,10.1,79.4,10.1z M20.6,17.8h6v3.7c0,2.1,1.7,3.9,3.9,3.9s3.9-1.7,3.9-3.9v-3.7h31.2v3.7c0,2.1,1.7,3.9,3.9,3.9
			s3.9-1.7,3.9-3.9v-3.7h6c5.5,0,9.9,4.5,9.9,10v5.1H10.7v-5.1C10.7,22.3,15.1,17.8,20.6,17.8z M79.4,89.7H20.6c-5.5,0-10-4.5-10-10
			V40.6h78.7v39.1C89.3,85.3,84.9,89.7,79.4,89.7z"/>
		<path class="st0" d="M29.8,49.7h-4.3c-3.1,0-5.5,2.5-5.5,5.5c0,3.1,2.5,5.5,5.5,5.5h4.3c3.1,0,5.5-2.5,5.5-5.5
			C35.4,52.2,32.9,49.7,29.8,49.7z"/>
		<path class="st0" d="M52.2,49.7h-4.3c-3.1,0-5.5,2.5-5.5,5.5c0,3.1,2.5,5.5,5.5,5.5h4.3c3.1,0,5.5-2.5,5.5-5.5
			S55.2,49.7,52.2,49.7z"/>
		<path class="st0" d="M74.5,49.7h-4.3c-3.1,0-5.5,2.5-5.5,5.5c0,3.1,2.5,5.5,5.5,5.5h4.3c3.1,0,5.5-2.5,5.5-5.5
			C80.1,52.2,77.6,49.7,74.5,49.7z"/>
		<path class="st0" d="M29.8,69.4h-4.3c-3.1,0-5.5,2.5-5.5,5.5c0,3.1,2.5,5.5,5.5,5.5h4.3c3.1,0,5.5-2.5,5.5-5.5
			C35.4,71.9,32.9,69.4,29.8,69.4z"/>
		<path class="st0" d="M52.2,69.4h-4.3c-3.1,0-5.5,2.5-5.5,5.5c0,3.1,2.5,5.5,5.5,5.5h4.3c3.1,0,5.5-2.5,5.5-5.5
			S55.2,69.4,52.2,69.4z"/>
		<path class="st0" d="M74.5,69.4h-4.3c-3.1,0-5.5,2.5-5.5,5.5c0,3.1,2.5,5.5,5.5,5.5h4.3c3.1,0,5.5-2.5,5.5-5.5
			C80.1,71.9,77.6,69.4,74.5,69.4z"/>
	</g>
</g>
</svg>
