<?xml version="1.0" encoding="utf-8"?>
<!-- Generator: Adobe Illustrator 22.1.0, SVG Export Plug-In . SVG Version: 6.00 Build 0)  -->
<svg version="1.1"
	 id="Layer_1" xmlns:cc="http://creativecommons.org/ns#" xmlns:dc="http://purl.org/dc/elements/1.1/" xmlns:inkscape="http://www.inkscape.org/namespaces/inkscape" xmlns:rdf="http://www.w3.org/1999/02/22-rdf-syntax-ns#" xmlns:sodipodi="http://sodipodi.sourceforge.net/DTD/sodipodi-0.dtd" xmlns:svg="http://www.w3.org/2000/svg"
	 xmlns="http://www.w3.org/2000/svg" xmlns:xlink="http://www.w3.org/1999/xlink" x="0px" y="0px" viewBox="0 0 26.5 27.5"
	 style="enable-background:new 0 0 26.5 27.5;" xml:space="preserve">
<style type="text/css">
	.st0{fill:#5B5B5B;}
</style>
<g transform="translate(0,-270.54165)">
	<path class="st0" d="M5.1,272.1c-0.7,0-1.5,0.3-2,0.8c-1.1,1.1-1.1,2.9,0,4c0.1,0.1,0.3,0.3,0.4,0.4c0.1,0.1,0.2,0.1,0.3,0l3.6-3.6
		c0.1-0.1,0.1-0.2,0-0.3c-0.1-0.2-0.2-0.3-0.4-0.4C6.5,272.4,5.8,272.1,5.1,272.1z M21.4,272.1c-0.7,0-1.5,0.3-2,0.8
		c-0.1,0.1-0.3,0.3-0.4,0.4c-0.1,0.1-0.1,0.2,0,0.3l3.6,3.6c0.1,0.1,0.2,0.1,0.3,0c0.2-0.1,0.3-0.2,0.4-0.4h0c1.1-1.1,1.1-2.9,0-4
		C22.8,272.4,22.1,272.1,21.4,272.1L21.4,272.1z M13.2,274.9c-5.6,0-10.2,4.6-10.2,10.3c0,5.7,4.6,10.3,10.2,10.3
		s10.2-4.6,10.2-10.3C23.5,279.5,18.9,274.9,13.2,274.9z M13.2,276.6c4.7,0,8.5,3.8,8.5,8.5c0,4.7-3.8,8.5-8.5,8.5s-8.5-3.8-8.5-8.5
		C4.7,280.5,8.5,276.6,13.2,276.6L13.2,276.6z M13,277.2c-1.3,0-2.5,0.4-3.5,0.9l0.5,0.9c0.2,0.3-0.3,0.5-0.4,0.2L9,278.4
		c-1,0.7-1.9,1.5-2.6,2.6c0.3,0.2,0.6,0.3,0.9,0.5c0.3,0.2,0,0.6-0.3,0.4c-0.3-0.2-0.6-0.3-0.9-0.5c-0.6,1.1-0.9,2.3-0.9,3.5
		c0.3,0,0.7,0,1,0c0.3,0,0.3,0.5,0,0.5c-0.3,0-0.7,0-1,0c0,1.3,0.4,2.5,0.9,3.5c0.3-0.2,0.6-0.3,0.9-0.5c0,0,0.1,0,0.1,0
		c0.3,0,0.4,0.3,0.1,0.5c-0.3,0.2-0.6,0.3-0.9,0.5c0.7,1,1.5,1.9,2.6,2.6c0.2-0.3,0.3-0.6,0.5-0.9c0-0.1,0.1-0.1,0.2-0.1
		c0.2,0,0.3,0.2,0.2,0.4c-0.2,0.3-0.3,0.6-0.5,0.9c1.1,0.6,2.3,0.9,3.5,0.9v-1c0-0.1,0.1-0.3,0.2-0.3c0.1,0,0.3,0.1,0.3,0.3v1
		c1.3,0,2.5-0.4,3.5-0.9c-0.2-0.3-0.3-0.6-0.5-0.9c-0.1-0.2,0-0.4,0.2-0.4c0.1,0,0.2,0,0.2,0.1c0.2,0.3,0.3,0.6,0.5,0.9
		c1-0.7,1.9-1.5,2.6-2.6c-0.3-0.2-0.6-0.3-0.9-0.5c-0.2-0.1-0.1-0.5,0.1-0.5c0.1,0,0.1,0,0.1,0c0.3,0.2,0.6,0.3,0.9,0.5
		c0.6-1.1,0.9-2.3,0.9-3.5c-0.3,0-0.7,0-1,0c-0.3,0-0.3-0.5,0-0.5c0.3,0,0.7,0,1,0c0-1.3-0.4-2.5-0.9-3.5c-0.3,0.2-0.6,0.3-0.9,0.5
		c-0.3,0.2-0.5-0.3-0.2-0.4c0.3-0.2,0.6-0.3,0.9-0.5c-0.7-1-1.5-1.9-2.6-2.6c-0.2,0.3-0.3,0.6-0.5,0.9c-0.2,0.3-0.6,0-0.4-0.2
		c0.2-0.3,0.3-0.6,0.5-0.9c-1.1-0.6-2.3-0.9-3.5-0.9v1c0,0.3-0.5,0.3-0.5,0L13,277.2z M13.2,280.3c0.1,0,0.3,0.1,0.3,0.3v3.3
		c0.6,0.1,1,0.6,1,1.2c0,0.7-0.6,1.3-1.2,1.3c-0.6,0-1.1-0.4-1.2-1H9.6c-0.3,0-0.3-0.5,0-0.5H12c0.1-0.5,0.5-0.9,1-1v-3.3
		C13,280.5,13.1,280.3,13.2,280.3L13.2,280.3z M13.2,284.4c-0.4,0-0.7,0.3-0.7,0.8c0,0.4,0.3,0.8,0.7,0.8c0.4,0,0.8-0.3,0.8-0.8
		C14,284.7,13.6,284.4,13.2,284.4z"/>
</g>
</svg>
