<?xml version="1.0" encoding="utf-8"?>
<!-- Generator: Adobe Illustrator 22.1.0, SVG Export Plug-In . SVG Version: 6.00 Build 0)  -->
<svg version="1.1" id="Layer_1" xmlns="http://www.w3.org/2000/svg" xmlns:xlink="http://www.w3.org/1999/xlink" x="0px" y="0px"
	 viewBox="0 0 100 87.7" style="enable-background:new 0 0 100 87.7;" xml:space="preserve">
<style type="text/css">
	.st0{fill:#FFFFFF;}
	.st1{fill:#8C8C8C;}
</style>
<circle class="st0" cx="49.6" cy="42.8" r="32.6"/>
<path class="st1" d="M88.6,42.7C88.6,21.4,71.3,4.1,50,4.1S11.4,21.4,11.4,42.7S28.7,81.3,50,81.3S88.6,64,88.6,42.7z M41.2,57.5
	c-0.8,0.8-1.9,1.2-3,1.2s-2.2-0.4-3-1.2c-1.7-1.7-1.7-4.3,0-6l8.8-8.8l-8.8-8.8c-1.7-1.7-1.7-4.3,0-6s4.3-1.7,6,0l8.8,8.8l8.8-8.8
	c1.7-1.7,4.3-1.7,6,0c1.7,1.7,1.7,4.3,0,6L56,42.7l8.8,8.8c1.7,1.7,1.7,4.3,0,6c-0.8,0.8-1.9,1.2-3,1.2s-2.2-0.4-3-1.2L50,48.7
	L41.2,57.5z"/>
</svg>
