<?xml version="1.0" encoding="utf-8"?>
<!-- Generator: Adobe Illustrator 22.1.0, SVG Export Plug-In . SVG Version: 6.00 Build 0)  -->
<svg version="1.1" id="Layer_1" xmlns="http://www.w3.org/2000/svg" xmlns:xlink="http://www.w3.org/1999/xlink" x="0px" y="0px"
	 viewBox="0 0 100 105" style="enable-background:new 0 0 100 105;" xml:space="preserve">
<style type="text/css">
	.st0{fill:#545454;}
</style>
<g>
	<path class="st0" d="M50,7L50,7C25.1,7,5,27.1,5,52l0,0c0,24.9,20.1,45,45,45l0,0c24.9,0,45-20.1,45-45l0,0C95,27.1,74.9,7,50,7z
		 M72.9,67.2c2.1,2.1,2.1,5.5,0,7.6c-1.1,1.1-2.4,1.6-3.8,1.6s-2.8-0.5-3.8-1.6l-15-15l-15.1,15c-1.1,1.1-2.4,1.6-3.8,1.6
		c-1.4,0-2.8-0.5-3.8-1.6c-2.1-2.1-2.1-5.5,0-7.6l15.1-15.1l-15.1-15c-2.1-2.1-2.1-5.5,0-7.6s5.5-2.1,7.6,0l15.1,15.1l15.1-15.1
		c2.1-2.1,5.5-2.1,7.6,0s2.1,5.5,0,7.6L57.9,52.2L72.9,67.2z"/>
</g>
</svg>
