<?xml version="1.0" encoding="utf-8"?>
<!-- Generator: Adobe Illustrator 22.1.0, SVG Export Plug-In . SVG Version: 6.00 Build 0)  -->
<svg version="1.1" id="Layer_1" xmlns="http://www.w3.org/2000/svg" xmlns:xlink="http://www.w3.org/1999/xlink" x="0px" y="0px"
	 viewBox="0 0 512 538" style="enable-background:new 0 0 512 538;" xml:space="preserve">
<style type="text/css">
	.st0{fill:#FFFFFF;}
</style>
<title>d3</title>
<path class="st0" d="M390.1,189H135.8c-0.1,2.2-0.3,4.4-0.3,6.3c0,20.5,0,41.1,0,61.7c0,44.8-0.1,89.7,0,134.5
	c-0.1,24,16.1,44.9,39.3,50.8c2.8,0.7,5.6,1.3,8.4,1.9h159.5c0.8-0.3,1.6-0.5,2.4-0.7c25.9-3.4,45.3-25.5,45.3-51.6
	c0.1-65.7,0.1-131.5,0-197.3C390.5,192.9,390.3,191.2,390.1,189z M205.1,296.8c0,28.7,0,57.5,0,86.2c0.1,1.7-0.1,3.4-0.4,5
	c-1.5,6.4-6.7,10.4-12.4,9.9c-5.8-0.6-10.4-5.9-10.5-12.4c-0.1-5.8-0.1-11.6-0.1-17.4c0-17.1,0-34.3,0-51.4c0-22.7,0-45.4,0-68.1
	c0-8,5.7-13.8,12.6-13.3c6.1,0.5,10.7,6,10.8,13.3C205.1,264.7,205.1,280.8,205.1,296.8z M274.7,317.1c0,22.2,0,44.5,0,66.7
	c0,1.3,0,2.7-0.2,4c-1.3,6.4-6.7,10.8-12.5,10.3c-5.7-0.5-10.5-5.9-10.6-12.3c-0.2-10-0.1-20-0.1-30.1c0-35,0-70,0-105.1
	c-0.1-1.6,0-3.1,0.2-4.7c1.2-6.5,6.5-10.9,12.4-10.5c5.9,0.4,10.7,5.9,10.8,12.5c0.1,12.1,0.1,24.1,0.1,36.3
	C274.7,295.1,274.7,306.1,274.7,317.1L274.7,317.1z M344.3,316.7L344.3,316.7c0,22.5,0,44.7,0,67c0.1,1.4,0,2.9-0.3,4.3
	c-1.5,6.5-6.8,10.7-12.7,10c-5.9-0.7-10.4-6.2-10.4-12.9c-0.1-18.6,0-37.2,0-55.8c0-26.1,0-52.2,0-78.3c0-1.5,0-2.9,0.1-4.4
	c0.7-6.6,6-11.5,12-11.3c5.8,0.2,10.8,5.3,11.2,11.7c0.2,3.4,0.1,6.8,0.1,10.2C344.3,277,344.3,297.1,344.3,316.7L344.3,316.7z"/>
<path class="st0" d="M413.7,141.6c0.1-14-7.9-22.1-21.9-22.1c-21,0-42,0-63,0c0.6-1.8,0.9-3.7,0.9-5.6V91.5
	c0-10.2-8.3-18.5-18.5-18.5h-96.3c-10.2,0-18.5,8.3-18.5,18.5v22.4c0,1.9,0.3,3.8,0.9,5.6c-21.5,0-42.9,0-64.4,0
	c-10.5,0-18.5,6.5-20.2,16.6c-0.4,2.5-0.3,5.1-0.3,7.6c0,14.1,7.9,22,22,22h151.5c35.9,0,71.8,0,107.7,0c10.6,0,18.5-6.9,20.1-17.2
	C413.7,146.2,413.8,143.9,413.7,141.6z"/>
</svg>
