<?xml version="1.0" encoding="utf-8"?>
<!-- Generator: Adobe Illustrator 22.1.0, SVG Export Plug-In . SVG Version: 6.00 Build 0)  -->
<svg version="1.1" id="Layer_1" xmlns="http://www.w3.org/2000/svg" xmlns:xlink="http://www.w3.org/1999/xlink" x="0px" y="0px"
	 viewBox="0 0 38.5 38.5" style="enable-background:new 0 0 38.5 38.5;" xml:space="preserve">
<style type="text/css">
	.st0{fill:#FFFFFF;}
</style>
<title>Artboard 46</title>
<g>
	<path class="st0" d="M32.1,9.9L26.2,4c-0.3-0.3-0.7-0.5-1.1-0.5H13.6c-0.9,0-1.6,0.7-1.6,1.6v3.8H8.1c-0.9,0-1.6,0.7-1.6,1.6v22.8
		c0,0.9,0.7,1.6,1.6,1.6l0,0h17.3c0.9,0,1.6-0.7,1.6-1.6l0,0v-3.8h3.8c0.9,0,1.6-0.7,1.6-1.6V11C32.5,10.6,32.4,10.2,32.1,9.9z
		 M26,5.4l4.7,4.7h-4.1C26.3,10,26,9.8,26,9.5V5.4z M26,33.3c0,0.3-0.2,0.5-0.5,0.5H8.1c-0.3,0-0.5-0.2-0.5-0.5V10.6
		c0-0.3,0.2-0.5,0.5-0.5h3.8v17.9c0,0.9,0.7,1.6,1.6,1.6H26V33.3z M30.9,28.5H13.6c-0.3,0-0.5-0.2-0.5-0.5V5.2
		c0-0.3,0.2-0.5,0.5-0.5h11.4v4.9c0,0.9,0.7,1.6,1.6,1.6h4.9v16.8C31.4,28.2,31.2,28.5,30.9,28.5z"/>
</g>
</svg>
