<?xml version="1.0" encoding="utf-8"?>
<!-- Generator: Adobe Illustrator 22.1.0, SVG Export Plug-In . SVG Version: 6.00 Build 0)  -->
<svg version="1.1" id="Layer_1" xmlns="http://www.w3.org/2000/svg" xmlns:xlink="http://www.w3.org/1999/xlink" x="0px" y="0px"
	 viewBox="0 0 520.5 550.6" style="enable-background:new 0 0 520.5 550.6;" xml:space="preserve">
<style type="text/css">
	.st0{fill:#FFFFFF;}
</style>
<g>
	<path class="st0" d="M429.9,137h-38V99c0-32-26-58-57-58h-242c-32,0-58,26-58,58v242c0,31,26,57,58,57h38v38c0,32,25,57,57,57h242
		c32,0,57-25,57-57V194C486.9,162,461.9,137,429.9,137z M344.9,137h-157c-32,0-57,25-57,57v157h-38c-3,0-6-1-7-3l0,0c-2-2-3-4-3-7
		V99c0-3,1-6,3-7l0,0c1-2,4-3,7-3h242c3,0,5,1,7,3l0,0c2,1,3,4,3,7V137z"/>
</g>
</svg>
