<?xml version="1.0" encoding="utf-8"?>
<!-- Generator: Adobe Illustrator 22.1.0, SVG Export Plug-In . SVG Version: 6.00 Build 0)  -->
<svg version="1.1" id="Layer_1" xmlns="http://www.w3.org/2000/svg" xmlns:xlink="http://www.w3.org/1999/xlink" x="0px" y="0px"
	 viewBox="0 0 100 93.7" style="enable-background:new 0 0 100 93.7;" xml:space="preserve">
<style type="text/css">
	.st0{fill:#1B63A5;}
	.st1{fill:#FFFFFF;}
</style>
<rect x="-7" class="st0" width="113" height="93.7"/>
<g id="Layer_2_1_">
</g>
<g id="Layer_1_1_">
	<path class="st1" d="M77.4,38.8H57V18.4c0-3.9-3.1-7-7-7s-7,3.1-7,7v20.4H22.6c-3.9,0-7,3.1-7,7c0,2,0.8,3.7,2,5c1.3,1.3,3,2,5,2
		H43v20.4c0,2,0.8,3.7,2,5c1.3,1.3,3,2,5,2c3.9,0,7-3.1,7-7V52.9h20.4c3.9,0,7-3.1,7-7S81.3,38.8,77.4,38.8z"/>
</g>
</svg>
