<?xml version="1.0" encoding="utf-8"?>
<!-- Generator: Adobe Illustrator 22.1.0, SVG Export Plug-In . SVG Version: 6.00 Build 0)  -->
<svg version="1.1"
	 id="Layer_1" xmlns:cc="http://creativecommons.org/ns#" xmlns:dc="http://purl.org/dc/elements/1.1/" xmlns:inkscape="http://www.inkscape.org/namespaces/inkscape" xmlns:rdf="http://www.w3.org/1999/02/22-rdf-syntax-ns#" xmlns:sodipodi="http://sodipodi.sourceforge.net/DTD/sodipodi-0.dtd" xmlns:svg="http://www.w3.org/2000/svg"
	 xmlns="http://www.w3.org/2000/svg" xmlns:xlink="http://www.w3.org/1999/xlink" x="0px" y="0px" viewBox="0 0 100 102"
	 style="enable-background:new 0 0 100 102;" xml:space="preserve">
<style type="text/css">
	.st0{fill:#FFFFFF;}
</style>
<g transform="translate(0,-952.36218)">
	<path class="st0" d="M33,962.4v25.1h34v-25.1C67,962.4,33,962.4,33,962.4z M52.9,964.6c0.1,0,0.1,0,0.2,0h3.8c1.1,0,2,0.9,2,2v15.8
		c0,1.1-0.9,2-2,2h-3.8c-1.1,0-2-0.9-2-2v-15.8C51.1,965.6,51.9,964.7,52.9,964.6z"/>
	<path class="st0" d="M24.7,1007.7v34.7h50.5v-34.7C75.3,1007.7,24.7,1007.7,24.7,1007.7z M32.8,1014.4c0.1,0,0.1,0,0.2,0h34
		c1.1,0,2,0.9,2,2c0,0,0,0,0,0v3.7c0,1.1-0.9,2-2,2H33c-1.1,0-2-0.9-2-2v-3.7C31,1015.3,31.7,1014.5,32.8,1014.4z M32.8,1028.5
		c0.1,0,0.1,0,0.2,0h34c1.1,0,2,0.9,2,2v3.7c0,1.1-0.9,2-2,2H33c-1.1,0-2-0.9-2-2v-3.7C31,1029.4,31.8,1028.5,32.8,1028.5z"/>
	<path class="st0" d="M11,962.4h18v27.1c0,1.1,0.9,2,2,2h38c1.1,0,2-0.9,2-2v-27.1h5.4L89,975v67.4h-9.7v-36.7c0-1.1-0.9-2-2-2H22.7
		c-1.1,0-2,0.9-2,2v36.7H11C11,1042.4,11,962.4,11,962.4z"/>
</g>
</svg>
