<?xml version="1.0" encoding="utf-8"?>
<!-- Generator: Adobe Illustrator 22.1.0, SVG Export Plug-In . SVG Version: 6.00 Build 0)  -->
<svg version="1.1" id="Layer_1" xmlns="http://www.w3.org/2000/svg" xmlns:xlink="http://www.w3.org/1999/xlink" x="0px" y="0px"
	 viewBox="0 0 100 104" style="enable-background:new 0 0 100 104;" xml:space="preserve">
<style type="text/css">
	.st0{fill:#77844F;}
</style>
<title>Artboard 2</title>
<path class="st0" d="M81.8,18.2c-17.6-17.6-46.1-17.6-63.6,0s-17.6,46.1,0,63.6c17.6,17.6,46.1,17.6,63.6,0
	C99.4,64.2,99.4,35.8,81.8,18.2C81.8,18.2,81.8,18.2,81.8,18.2z M25.2,25.2C36.9,13.6,55,11.7,68.9,20.5L67.4,22L20.5,68.9
	C11.7,55,13.6,36.9,25.2,25.2z M74.8,74.8C63.1,86.4,45,88.3,31.1,79.5L78,32.6l1.4-1.4C88.3,45,86.4,63.1,74.8,74.8z"/>
</svg>
